# xmcd CD database file
#
# Track frame offsets:
#	150
#	18850
#	38485
#	75462
#	93912
#	139730
#	169452
#	196655
#	227655
#	248580
#	271690
#	285377
#
# Disc length: 4514 seconds
#
# Revision: 0
# Processed by: cddbd v1.5.1PL0 Copyright (c) Steve Scherf et al.
# Submitted via: CDex 1.51
#
DISCID=8711a00c
DTITLE=Various Artist - Live at Ronnie Scott's
DYEAR=1900
DGENRE=Jazz
TTITLE0=Ronnie Scott's Quintet/This love of mine
TTITLE1=Al Cohn and the Jazz Seven/High on you
TTITLE2=Tubby Hayes/Spring can really hang you up th most
TTITLE3=John Taylor Trio/Evensong
TTITLE4=George Coleman Quintet/Never let me go
TTITLE5=Jack Sharpe Big Band/J&B
TTITLE6=Ben Webster Quartet/Over the rainbow
TTITLE7=Irakere/La Pastora
TTITLE8=Sarah Vaughan/The man I love
TTITLE9=Arturo Sandoval/Donna Lee
TTITLE10=Ian Shaw/This can't be love
TTITLE11=Ronnie Scott's Quintet/All the things you are
EXTD=
EXTT0=
EXTT1=
EXTT2=
EXTT3=
EXTT4=
EXTT5=
EXTT6=
EXTT7=
EXTT8=
EXTT9=
EXTT10=
EXTT11=
PLAYORDER=
